<svg width="519" height="347" viewBox="0 0 519 347" fill="none" xmlns="http://www.w3.org/2000/svg">
<path d="M151.47 294.433C146.39 294.433 141.27 292.823 136.92 289.503L9.43005 192.133C3.48005 187.593 0 180.543 0 173.063C0 165.583 3.49005 158.533 9.43005 153.993L136.91 56.6234C147.44 48.5734 162.5 50.5934 170.55 61.1334C178.59 71.6634 176.58 86.7333 166.04 94.7733L63.53 173.073L165.61 251.033C176.15 259.083 178.58 274.583 170.49 285.083C165.77 291.213 158.66 294.433 151.47 294.433Z" fill="#72B8CE"/>
<path d="M366.77 294.433C359.55 294.433 352.4 291.183 347.68 285.003C339.64 274.473 341.65 259.403 352.19 251.363L454.7 173.063L352.19 94.7632C341.66 86.7132 339.64 71.6533 347.68 61.1233C355.73 50.5933 370.79 48.5733 381.32 56.6133L508.8 153.983C514.75 158.523 518.23 165.573 518.23 173.053C518.23 180.533 514.74 187.583 508.8 192.123L381.32 289.493C376.97 292.823 371.85 294.433 366.77 294.433Z" fill="#72B8CE"/>
<path d="M217.47 346.133C215.33 346.133 213.16 345.843 211 345.243C198.23 341.673 190.78 328.433 194.35 315.673L277.66 17.5433C281.23 4.7733 294.46 -2.67672 307.23 0.893279C320 4.46328 327.45 17.7033 323.88 30.4633L240.56 328.593C237.61 339.193 227.97 346.133 217.47 346.133Z" fill="#72B8CE"/>
</svg>
